<mxfile host="app.diagrams.net" modified="2024-01-09T07:14:33.938Z" agent="Mozilla/5.0 (Windows NT 10.0; Win64; x64) AppleWebKit/537.36 (KHTML, like Gecko) Chrome/120.0.0.0 Safari/537.36" etag="EXxgU2jJ3XwSGn2TP8W4" version="22.1.17" type="github">
  <diagram name="페이지-1" id="nUBOoZt33F9SWhYK8sOz">
    <mxGraphModel dx="823" dy="925" grid="1" gridSize="10" guides="1" tooltips="1" connect="1" arrows="1" fold="1" page="1" pageScale="1" pageWidth="1169" pageHeight="827" math="0" shadow="0">
      <root>
        <mxCell id="0" />
        <mxCell id="1" parent="0" />
        <mxCell id="9L_8yTcBQ5B472PnxIOI-1" value="&lt;h1&gt;&lt;br&gt;&lt;/h1&gt;" style="rounded=0;whiteSpace=wrap;html=1;fillColor=#f9f7ed;strokeColor=#36393d;" parent="1" vertex="1">
          <mxGeometry x="70" y="50" width="260" height="425" as="geometry" />
        </mxCell>
        <mxCell id="9L_8yTcBQ5B472PnxIOI-2" value="&lt;h1&gt;강화&lt;/h1&gt;" style="text;html=1;strokeColor=none;fillColor=none;align=center;verticalAlign=middle;whiteSpace=wrap;rounded=0;" parent="1" vertex="1">
          <mxGeometry x="414" y="85" width="336" height="30" as="geometry" />
        </mxCell>
        <mxCell id="9L_8yTcBQ5B472PnxIOI-3" value="스테이지 시작" style="ellipse;whiteSpace=wrap;html=1;" parent="1" vertex="1">
          <mxGeometry x="170" y="65" width="120" height="40" as="geometry" />
        </mxCell>
        <mxCell id="9L_8yTcBQ5B472PnxIOI-4" value="" style="endArrow=classic;html=1;rounded=0;exitX=0.5;exitY=1;exitDx=0;exitDy=0;entryX=0.5;entryY=0;entryDx=0;entryDy=0;" parent="1" source="9L_8yTcBQ5B472PnxIOI-3" target="9L_8yTcBQ5B472PnxIOI-6" edge="1">
          <mxGeometry width="50" height="50" relative="1" as="geometry">
            <mxPoint x="220" y="175" as="sourcePoint" />
            <mxPoint x="230" y="155" as="targetPoint" />
          </mxGeometry>
        </mxCell>
        <mxCell id="9L_8yTcBQ5B472PnxIOI-19" style="edgeStyle=orthogonalEdgeStyle;rounded=0;orthogonalLoop=1;jettySize=auto;html=1;strokeColor=#FF0000;" parent="1" source="9L_8yTcBQ5B472PnxIOI-6" edge="1">
          <mxGeometry relative="1" as="geometry">
            <mxPoint x="100" y="225" as="targetPoint" />
          </mxGeometry>
        </mxCell>
        <mxCell id="9L_8yTcBQ5B472PnxIOI-6" value="노말몹" style="rhombus;whiteSpace=wrap;html=1;" parent="1" vertex="1">
          <mxGeometry x="175" y="205" width="110" height="40" as="geometry" />
        </mxCell>
        <mxCell id="9L_8yTcBQ5B472PnxIOI-7" value="" style="endArrow=classic;html=1;rounded=0;exitX=0.5;exitY=1;exitDx=0;exitDy=0;entryX=0.615;entryY=0.456;entryDx=0;entryDy=0;entryPerimeter=0;strokeColor=#00CC00;" parent="1" source="9L_8yTcBQ5B472PnxIOI-6" edge="1">
          <mxGeometry width="50" height="50" relative="1" as="geometry">
            <mxPoint x="170" y="305" as="sourcePoint" />
            <mxPoint x="229.89999999999998" y="285.19999999999993" as="targetPoint" />
          </mxGeometry>
        </mxCell>
        <mxCell id="9L_8yTcBQ5B472PnxIOI-8" value="처치완료" style="edgeLabel;html=1;align=center;verticalAlign=middle;resizable=0;points=[];" parent="9L_8yTcBQ5B472PnxIOI-7" vertex="1" connectable="0">
          <mxGeometry x="-0.2795" relative="1" as="geometry">
            <mxPoint as="offset" />
          </mxGeometry>
        </mxCell>
        <mxCell id="9L_8yTcBQ5B472PnxIOI-9" value="" style="endArrow=classic;html=1;rounded=0;dashed=1;" parent="1" edge="1">
          <mxGeometry width="50" height="50" relative="1" as="geometry">
            <mxPoint x="230" y="129.63" as="sourcePoint" />
            <mxPoint x="170" y="129.63" as="targetPoint" />
            <Array as="points">
              <mxPoint x="200" y="129.63" />
            </Array>
          </mxGeometry>
        </mxCell>
        <mxCell id="9L_8yTcBQ5B472PnxIOI-10" value="&lt;font style=&quot;font-size: 10px;&quot;&gt;메인스토리 진행 및 기능 활성화&lt;/font&gt;" style="shape=process;whiteSpace=wrap;html=1;backgroundOutline=1;" parent="1" vertex="1">
          <mxGeometry x="90" y="115" width="80" height="40" as="geometry" />
        </mxCell>
        <mxCell id="9L_8yTcBQ5B472PnxIOI-11" value="" style="endArrow=classic;html=1;rounded=0;exitX=1;exitY=0.5;exitDx=0;exitDy=0;dashed=1;" parent="1" edge="1">
          <mxGeometry width="50" height="50" relative="1" as="geometry">
            <mxPoint x="170" y="139.63" as="sourcePoint" />
            <mxPoint x="230" y="139.63" as="targetPoint" />
          </mxGeometry>
        </mxCell>
        <mxCell id="9L_8yTcBQ5B472PnxIOI-15" style="edgeStyle=orthogonalEdgeStyle;rounded=0;orthogonalLoop=1;jettySize=auto;html=1;entryX=0.5;entryY=0;entryDx=0;entryDy=0;strokeColor=#00CC00;" parent="1" source="9L_8yTcBQ5B472PnxIOI-12" target="9L_8yTcBQ5B472PnxIOI-14" edge="1">
          <mxGeometry relative="1" as="geometry" />
        </mxCell>
        <mxCell id="9L_8yTcBQ5B472PnxIOI-16" value="처치완료" style="edgeLabel;html=1;align=center;verticalAlign=middle;resizable=0;points=[];" parent="9L_8yTcBQ5B472PnxIOI-15" vertex="1" connectable="0">
          <mxGeometry x="-0.3278" y="-1" relative="1" as="geometry">
            <mxPoint as="offset" />
          </mxGeometry>
        </mxCell>
        <mxCell id="9L_8yTcBQ5B472PnxIOI-17" style="edgeStyle=orthogonalEdgeStyle;rounded=0;orthogonalLoop=1;jettySize=auto;html=1;strokeColor=#FF0000;" parent="1" source="9L_8yTcBQ5B472PnxIOI-12" edge="1">
          <mxGeometry relative="1" as="geometry">
            <mxPoint x="230" y="175" as="targetPoint" />
            <Array as="points">
              <mxPoint x="120" y="305" />
              <mxPoint x="120" y="175" />
            </Array>
          </mxGeometry>
        </mxCell>
        <mxCell id="9L_8yTcBQ5B472PnxIOI-18" value="처치실패" style="edgeLabel;html=1;align=center;verticalAlign=middle;resizable=0;points=[];" parent="9L_8yTcBQ5B472PnxIOI-17" vertex="1" connectable="0">
          <mxGeometry x="-0.6565" y="2" relative="1" as="geometry">
            <mxPoint x="-5" y="-2" as="offset" />
          </mxGeometry>
        </mxCell>
        <mxCell id="9L_8yTcBQ5B472PnxIOI-21" value="처치실패" style="edgeLabel;html=1;align=center;verticalAlign=middle;resizable=0;points=[];" parent="9L_8yTcBQ5B472PnxIOI-17" vertex="1" connectable="0">
          <mxGeometry x="-0.0761" y="2" relative="1" as="geometry">
            <mxPoint x="2" as="offset" />
          </mxGeometry>
        </mxCell>
        <mxCell id="9L_8yTcBQ5B472PnxIOI-12" value="보스몹" style="rhombus;whiteSpace=wrap;html=1;" parent="1" vertex="1">
          <mxGeometry x="175" y="285" width="110" height="40" as="geometry" />
        </mxCell>
        <mxCell id="9L_8yTcBQ5B472PnxIOI-23" style="edgeStyle=orthogonalEdgeStyle;rounded=0;orthogonalLoop=1;jettySize=auto;html=1;" parent="1" source="9L_8yTcBQ5B472PnxIOI-14" target="9L_8yTcBQ5B472PnxIOI-22" edge="1">
          <mxGeometry relative="1" as="geometry" />
        </mxCell>
        <mxCell id="9L_8yTcBQ5B472PnxIOI-14" value="보상 획득" style="rounded=1;whiteSpace=wrap;html=1;" parent="1" vertex="1">
          <mxGeometry x="172.5" y="365" width="115" height="30" as="geometry" />
        </mxCell>
        <mxCell id="9L_8yTcBQ5B472PnxIOI-22" value="스테이지 시작" style="ellipse;whiteSpace=wrap;html=1;" parent="1" vertex="1">
          <mxGeometry x="170" y="425" width="120" height="40" as="geometry" />
        </mxCell>
        <mxCell id="amIlMZ5LHg6zp29qRjKw-1" value="" style="rounded=0;whiteSpace=wrap;html=1;fillColor=#d5e8d4;strokeColor=#000000;" vertex="1" parent="1">
          <mxGeometry x="414" y="115" width="336" height="600" as="geometry" />
        </mxCell>
        <mxCell id="amIlMZ5LHg6zp29qRjKw-2" value="&lt;h1&gt;모험&lt;/h1&gt;" style="text;html=1;strokeColor=none;fillColor=none;align=center;verticalAlign=middle;whiteSpace=wrap;rounded=0;" vertex="1" parent="1">
          <mxGeometry x="70" y="20" width="260" height="30" as="geometry" />
        </mxCell>
        <mxCell id="amIlMZ5LHg6zp29qRjKw-3" value="타워 레벨업" style="rounded=1;whiteSpace=wrap;html=1;" vertex="1" parent="1">
          <mxGeometry x="440" y="145" width="120" height="30" as="geometry" />
        </mxCell>
        <mxCell id="amIlMZ5LHg6zp29qRjKw-8" style="edgeStyle=orthogonalEdgeStyle;rounded=0;orthogonalLoop=1;jettySize=auto;html=1;" edge="1" parent="1" source="amIlMZ5LHg6zp29qRjKw-4" target="amIlMZ5LHg6zp29qRjKw-6">
          <mxGeometry relative="1" as="geometry" />
        </mxCell>
        <mxCell id="amIlMZ5LHg6zp29qRjKw-16" style="edgeStyle=orthogonalEdgeStyle;rounded=0;orthogonalLoop=1;jettySize=auto;html=1;exitX=1;exitY=0.5;exitDx=0;exitDy=0;entryX=0;entryY=0.5;entryDx=0;entryDy=0;" edge="1" parent="1" source="amIlMZ5LHg6zp29qRjKw-4" target="amIlMZ5LHg6zp29qRjKw-11">
          <mxGeometry relative="1" as="geometry" />
        </mxCell>
        <mxCell id="amIlMZ5LHg6zp29qRjKw-17" style="edgeStyle=orthogonalEdgeStyle;rounded=0;orthogonalLoop=1;jettySize=auto;html=1;exitX=1;exitY=0.5;exitDx=0;exitDy=0;entryX=0;entryY=0.5;entryDx=0;entryDy=0;" edge="1" parent="1" source="amIlMZ5LHg6zp29qRjKw-4" target="amIlMZ5LHg6zp29qRjKw-12">
          <mxGeometry relative="1" as="geometry" />
        </mxCell>
        <mxCell id="amIlMZ5LHg6zp29qRjKw-18" style="edgeStyle=orthogonalEdgeStyle;rounded=0;orthogonalLoop=1;jettySize=auto;html=1;exitX=1;exitY=0.5;exitDx=0;exitDy=0;entryX=0;entryY=0.5;entryDx=0;entryDy=0;" edge="1" parent="1" source="amIlMZ5LHg6zp29qRjKw-4" target="amIlMZ5LHg6zp29qRjKw-13">
          <mxGeometry relative="1" as="geometry" />
        </mxCell>
        <mxCell id="amIlMZ5LHg6zp29qRjKw-19" style="edgeStyle=orthogonalEdgeStyle;rounded=0;orthogonalLoop=1;jettySize=auto;html=1;exitX=1;exitY=0.5;exitDx=0;exitDy=0;entryX=0;entryY=0.5;entryDx=0;entryDy=0;" edge="1" parent="1" source="amIlMZ5LHg6zp29qRjKw-4" target="amIlMZ5LHg6zp29qRjKw-14">
          <mxGeometry relative="1" as="geometry" />
        </mxCell>
        <mxCell id="amIlMZ5LHg6zp29qRjKw-20" style="edgeStyle=orthogonalEdgeStyle;rounded=0;orthogonalLoop=1;jettySize=auto;html=1;exitX=1;exitY=0.5;exitDx=0;exitDy=0;entryX=0;entryY=0.5;entryDx=0;entryDy=0;" edge="1" parent="1" source="amIlMZ5LHg6zp29qRjKw-4" target="amIlMZ5LHg6zp29qRjKw-15">
          <mxGeometry relative="1" as="geometry" />
        </mxCell>
        <mxCell id="amIlMZ5LHg6zp29qRjKw-4" value="기본 성장" style="rounded=1;whiteSpace=wrap;html=1;" vertex="1" parent="1">
          <mxGeometry x="440" y="185" width="120" height="30" as="geometry" />
        </mxCell>
        <mxCell id="amIlMZ5LHg6zp29qRjKw-6" value="공격력" style="rounded=1;whiteSpace=wrap;html=1;" vertex="1" parent="1">
          <mxGeometry x="600" y="185" width="120" height="30" as="geometry" />
        </mxCell>
        <mxCell id="amIlMZ5LHg6zp29qRjKw-11" value="체력" style="rounded=1;whiteSpace=wrap;html=1;" vertex="1" parent="1">
          <mxGeometry x="600" y="225" width="120" height="30" as="geometry" />
        </mxCell>
        <mxCell id="amIlMZ5LHg6zp29qRjKw-12" value="방어력" style="rounded=1;whiteSpace=wrap;html=1;" vertex="1" parent="1">
          <mxGeometry x="600" y="265" width="120" height="30" as="geometry" />
        </mxCell>
        <mxCell id="amIlMZ5LHg6zp29qRjKw-13" value="회복력" style="rounded=1;whiteSpace=wrap;html=1;" vertex="1" parent="1">
          <mxGeometry x="600" y="305" width="120" height="30" as="geometry" />
        </mxCell>
        <mxCell id="amIlMZ5LHg6zp29qRjKw-14" value="치명타율" style="rounded=1;whiteSpace=wrap;html=1;" vertex="1" parent="1">
          <mxGeometry x="600" y="345" width="120" height="30" as="geometry" />
        </mxCell>
        <mxCell id="amIlMZ5LHg6zp29qRjKw-15" value="치명타 피해량" style="rounded=1;whiteSpace=wrap;html=1;" vertex="1" parent="1">
          <mxGeometry x="600" y="385" width="120" height="30" as="geometry" />
        </mxCell>
        <mxCell id="amIlMZ5LHg6zp29qRjKw-21" value="타워 무기" style="rounded=1;whiteSpace=wrap;html=1;" vertex="1" parent="1">
          <mxGeometry x="440" y="495" width="120" height="30" as="geometry" />
        </mxCell>
        <mxCell id="amIlMZ5LHg6zp29qRjKw-22" value="수리쥐" style="rounded=1;whiteSpace=wrap;html=1;" vertex="1" parent="1">
          <mxGeometry x="440" y="535" width="120" height="30" as="geometry" />
        </mxCell>
        <mxCell id="amIlMZ5LHg6zp29qRjKw-26" value="" style="edgeStyle=orthogonalEdgeStyle;rounded=0;orthogonalLoop=1;jettySize=auto;html=1;" edge="1" parent="1" source="amIlMZ5LHg6zp29qRjKw-23" target="amIlMZ5LHg6zp29qRjKw-25">
          <mxGeometry relative="1" as="geometry" />
        </mxCell>
        <mxCell id="amIlMZ5LHg6zp29qRjKw-31" style="edgeStyle=orthogonalEdgeStyle;rounded=0;orthogonalLoop=1;jettySize=auto;html=1;exitX=1;exitY=0.5;exitDx=0;exitDy=0;entryX=0;entryY=0.5;entryDx=0;entryDy=0;" edge="1" parent="1" source="amIlMZ5LHg6zp29qRjKw-23" target="amIlMZ5LHg6zp29qRjKw-28">
          <mxGeometry relative="1" as="geometry" />
        </mxCell>
        <mxCell id="amIlMZ5LHg6zp29qRjKw-32" style="edgeStyle=orthogonalEdgeStyle;rounded=0;orthogonalLoop=1;jettySize=auto;html=1;exitX=1;exitY=0.5;exitDx=0;exitDy=0;entryX=0;entryY=0.5;entryDx=0;entryDy=0;" edge="1" parent="1" source="amIlMZ5LHg6zp29qRjKw-23" target="amIlMZ5LHg6zp29qRjKw-29">
          <mxGeometry relative="1" as="geometry" />
        </mxCell>
        <mxCell id="amIlMZ5LHg6zp29qRjKw-23" value="고양이" style="rounded=1;whiteSpace=wrap;html=1;" vertex="1" parent="1">
          <mxGeometry x="440" y="575" width="120" height="30" as="geometry" />
        </mxCell>
        <mxCell id="amIlMZ5LHg6zp29qRjKw-25" value="레벨업" style="whiteSpace=wrap;html=1;rounded=1;" vertex="1" parent="1">
          <mxGeometry x="600" y="575" width="120" height="30" as="geometry" />
        </mxCell>
        <mxCell id="amIlMZ5LHg6zp29qRjKw-28" value="장비" style="whiteSpace=wrap;html=1;rounded=1;" vertex="1" parent="1">
          <mxGeometry x="600" y="615" width="120" height="30" as="geometry" />
        </mxCell>
        <mxCell id="amIlMZ5LHg6zp29qRjKw-29" value="스킨" style="whiteSpace=wrap;html=1;rounded=1;" vertex="1" parent="1">
          <mxGeometry x="600" y="655" width="120" height="30" as="geometry" />
        </mxCell>
        <mxCell id="amIlMZ5LHg6zp29qRjKw-33" value="" style="rounded=0;whiteSpace=wrap;html=1;fillColor=#dae8fc;strokeColor=#000000;" vertex="1" parent="1">
          <mxGeometry x="70" y="540" width="260" height="260" as="geometry" />
        </mxCell>
        <mxCell id="amIlMZ5LHg6zp29qRjKw-34" value="&lt;h1&gt;던전&lt;/h1&gt;" style="text;html=1;strokeColor=none;fillColor=none;align=center;verticalAlign=middle;whiteSpace=wrap;rounded=0;" vertex="1" parent="1">
          <mxGeometry x="70" y="510" width="260" height="30" as="geometry" />
        </mxCell>
        <mxCell id="amIlMZ5LHg6zp29qRjKw-35" value="" style="rounded=0;whiteSpace=wrap;html=1;fillColor=#ffe6cc;strokeColor=#000000;" vertex="1" parent="1">
          <mxGeometry x="830" y="115" width="290" height="595" as="geometry" />
        </mxCell>
        <mxCell id="amIlMZ5LHg6zp29qRjKw-36" value="&lt;h1&gt;능력치&lt;/h1&gt;" style="text;html=1;strokeColor=none;fillColor=none;align=center;verticalAlign=middle;whiteSpace=wrap;rounded=0;" vertex="1" parent="1">
          <mxGeometry x="830" y="85" width="290" height="30" as="geometry" />
        </mxCell>
      </root>
    </mxGraphModel>
  </diagram>
</mxfile>
